<svg width="29" height="29" viewBox="0 0 29 29" fill="none" xmlns="http://www.w3.org/2000/svg">
<path d="M24 3H10C8.89543 3 8 3.89543 8 5V19C8 20.1046 8.89543 21 10 21H24C25.1046 21 26 20.1046 26 19V5C26 3.89543 25.1046 3 24 3Z" stroke="white" stroke-width="2" stroke-linecap="round" stroke-linejoin="round"/>
<line x1="2" y1="4" x2="2" y2="21" stroke="white" stroke-width="2"/>
<path d="M2 1L3.73205 4H0.267945L2 1Z" fill="white"/>
<path d="M2 23L0.267946 20L3.73205 20L2 23Z" fill="white"/>
<line x1="10" y1="27" x2="27" y2="27" stroke="white" stroke-width="2"/>
<path d="M7 27L10 25.2679L10 28.7321L7 27Z" fill="white"/>
<path d="M29 27L26 28.732L26 25.2679L29 27Z" fill="white"/>
</svg>
