<svg width="24" height="29" viewBox="0 0 24 29" fill="none" xmlns="http://www.w3.org/2000/svg">
<rect width="24" height="29" fill="none"/>
<path d="M16.8889 28V25.1338C16.9306 24.6577 16.859 24.1789 16.6789 23.7295C16.4988 23.2801 16.2144 22.8703 15.8445 22.5273C19.3334 22.1778 23 20.9894 23 15.5367C22.9997 14.1424 22.403 12.8016 21.3333 11.7917C21.8398 10.5719 21.804 9.2235 21.2333 8.02676C21.2333 8.02676 19.9222 7.67723 16.8889 9.50478C14.3423 8.88443 11.6578 8.88443 9.11117 9.50478C6.07785 7.67723 4.76674 8.02676 4.76674 8.02676C4.19605 9.2235 4.16024 10.5719 4.66674 11.7917C3.5891 12.809 2.99177 14.162 3.00009 15.5667C3.00009 20.9794 6.66672 22.1678 10.1556 22.5573C9.79004 22.8968 9.50812 23.3017 9.32817 23.7456C9.14822 24.1895 9.07428 24.6626 9.11117 25.1338V28" stroke="white" stroke-width="2" stroke-linecap="round" stroke-linejoin="round"/>
<path d="M8 25.6756C5 26.5436 2.5 25.6756 1 23" stroke="white" stroke-width="2" stroke-linecap="round" stroke-linejoin="round"/>
</svg>
